<?xml version="1.0" encoding="utf-8"?>
<?xml-stylesheet type="text/xsl" href="rss1.xsl"?>
<rss version="2.0" xmlns:atom="http://www.w3.org/2005/Atom" xmlns:content="http://purl.org/rss/1.0/modules/content/" xmlns:dc="http://purl.org/dc/elements/1.1/" xmlns:media="http://search.yahoo.com/mrss/">
<channel>
 <title>Getty</title>
 <link>http://www.gettyimg.com/</link>
 <atom:link href="http://www.gettyimg.com/" rel="self" type="application/rss+xml" />

 
                <item>
                <title><![CDATA[【Interviews / TV shows / Others】WEB-RiP - Céline Dion - Céline’s Story | An NBC News Special with Hoda Kotb (2024) 1080p]]></title>
                <link><![CDATA[https://sharemania.us/threads/c%C3%A9line-dion-c%C3%A9line%E2%80%99s-story-an-nbc-news-special-with-hoda-kotb-2024-1080p.246748/]]></link>
                <description><![CDATA[<article>
<blockquote class="messageText SelectQuoteContainer ugc baseHtml">
<img src="https://i.imgur.com/lSdO1Lu.jpeg" class="bbCodeImage LbImage" alt="[​IMG]" data-url="https://i.imgur.com/lSdO1Lu.jpeg" style=""> <br>
<br>
Celine Dion told NBC's Hoda Kotb that trying to sing while having stiff-person syndrome is "like somebody is strangling you."<br>
<br>
In an exclusive interview, which was previewed on "TODAY," Dion shared how the condition is affecting her life — and her singing career.<br>
<br>
She said when she tries to sing, it feels like someone is pushing on her larynx and pharynx and that when she tries to make her voice higher or lower, she spasms.<br>
<br>
<div class="bbCodeBlock bbCodeCode">
<div class="type">Code:</div>
<pre>Video
ID                             : 1
Format                         : AVC
Format/Info                    : Advanced Video Codec
Format profile                 : High@L5
Format settings                : CABAC / 5 Ref Frames
Format settings, CABAC         : Yes
Format settings, Reference fra : 5 frames
Codec ID                       : avc1
Codec ID/Info                  : Advanced Video Coding
Duration                       : 29 min 39 s
Bit rate                       : 1 034 kb/s
Width                          : 1 920 pixels
Height                         : 1 080 pixels
Display aspect ratio           : 16:9
Frame rate mode                : Constant
Frame rate                     : 30.000 FPS
Color space                    : YUV
Chroma subsampling             : 4:2:0
Bit depth                      : 8 bits
Scan type                      : Progressive
Bits/(Pixel*Frame)             : 0.017
Stream size                    : 219 MiB (89%)
Writing library                : x264 core 164 r3095 baee400


Audio
ID                             : 2
Format                         : AAC LC
Format/Info                    : Advanced Audio Codec Low Complexity
Codec ID                       : mp4a-40-2
Duration                       : 29 min 39 s
Bit rate mode                  : Variable
Bit rate                       : 130 kb/s
Channel(s)                     : 2 channels
Channel layout                 : L R
Sampling rate                  : 44.1 kHz
Frame rate                     : 43.066 FPS (1024 SPF)
Compression mode               : Lossy
Stream size                    : 27.2 MiB (11%)
Title                          : Twitter-vork muxer
Default                        : Yes
Alternate group                : 1
Tagged date                    : 2024-06-12 04:12:38 UTC
</pre>
</div><b>DOWNLOAD:</b><br>
<div class="bbCodeBlock bbCodeVfcHH HiddenContent">
<div class="attribution type">Hidden Content:</div>
<blockquote>You must either reply or click 'Like' to see the hidden information contained here.</blockquote>
</div><br>
<div class="messageTextEndMarker">&nbsp;</div>
</blockquote>
</article>]]></description>
                <author><![CDATA[taongjebe]]></author>
                </item>

                
                <item>
                <title><![CDATA[【Requests】[REQ VID] - Sixpence None The Richer - There She Goes (1999) [Master ProRes] 1080p]]></title>
                <link><![CDATA[https://sharemania.us/threads/sixpence-none-the-richer-there-she-goes-1999-master-prores-1080p.246749/]]></link>
                <description><![CDATA[<article>
<blockquote class="messageText SelectQuoteContainer ugc baseHtml">
Please .. Thanks ..
<div class="messageTextEndMarker">&nbsp;</div>
</blockquote>
</article>]]></description>
                <author><![CDATA[usefulseed]]></author>
                </item>

                </channel></rss>